<?xml version="1.0" standalone="no"?>
<!DOCTYPE svg PUBLIC "-//W3C//DTD SVG 20010904//EN" "http://www.w3.org/TR/2001/REC-SVG-20010904/DTD/svg10.dtd">
<!-- Created using Krita: https://krita.org -->
<svg xmlns="http://www.w3.org/2000/svg" 
    xmlns:xlink="http://www.w3.org/1999/xlink"
    xmlns:krita="http://krita.org/namespaces/svg/krita"
    xmlns:sodipodi="http://sodipodi.sourceforge.net/DTD/sodipodi-0.dtd"
    width="368.64pt"
    height="368.64pt"
    viewBox="0 0 368.64 368.64">
<defs>
  <linearGradient id="gradient0" gradientUnits="objectBoundingBox" x1="0" y1="0" x2="1" y2="1" spreadMethod="pad">
   <stop stop-color="#ffc8ff" offset="0" stop-opacity="1"/>
   <stop stop-color="#4e4ef2" offset="1" stop-opacity="1"/>
  </linearGradient>
 </defs>
<circle id="shape0" transform="matrix(0.999999872667802 0 0 0.999999872667802 35.279994247768 35.279994247768)" r="151.920001887259" cx="151.920001887259" cy="151.920001887259" fill="#000000" fill-opacity="0" fill-rule="evenodd" stroke="url(#gradient0)" stroke-width="10.8" stroke-linecap="square" stroke-linejoin="bevel"/><path id="shape01" transform="matrix(1.1748044667138 0 0 1.1748044667138 89.6202936013917 104.017480295736)" fill="#ffa800" fill-rule="evenodd" stroke="#ffa800" stroke-width="10.8" stroke-linecap="square" stroke-linejoin="bevel" d="M43.2 57.6L57.6 0L0 43.2L28.8 100.8Z" sodipodi:nodetypes="ccccc"/><path id="shape02" transform="matrix(1.1748044435269 0 0 1.1748044435269 123.454662470528 222.437766150274)" fill="#ffa800" fill-rule="evenodd" stroke="#ffa800" stroke-width="10.8" stroke-linecap="square" stroke-linejoin="bevel" d="M0 0L36.72 43.2L57.6 0L36 0L28.8 14.4L7.92 0Z" sodipodi:nodetypes="ccccccc"/><path id="shape03" transform="matrix(-1.1748044667138 0 0 1.1748044667138 285.859634040196 104.017480295736)" fill="#ffa800" fill-rule="evenodd" stroke="#ffa800" stroke-width="10.8" stroke-linecap="square" stroke-linejoin="bevel" d="M43.2 57.6L57.6 0L0 43.2L28.8 100.8Z" sodipodi:nodetypes="ccccc"/><path id="shape04" transform="matrix(-1.1748044435269 0 0 1.1748044435269 252.025258238861 222.437766150274)" fill="#ffa800" fill-rule="evenodd" stroke="#ffa800" stroke-width="10.8" stroke-linecap="square" stroke-linejoin="bevel" d="M0 0L36.72 43.2L57.6 0L36 0L28.8 14.4L7.92 0Z" sodipodi:nodetypes="ccccccc"/><text id="shape011" krita:useRichText="true" krita:textVersion="2" transform="matrix(0.999999924284703 0 0 0.999999924284703 168.569987236673 225.182340786605)" fill="#ffffff" stroke-opacity="0" stroke="#000000" stroke-width="0" stroke-linecap="square" stroke-linejoin="bevel" font-stretch="normal" letter-spacing="0" word-spacing="0"><tspan x="0">@Kayou</tspan></text>
</svg>
